<svg xmlns="http://www.w3.org/2000/svg" viewBox="0 0 24 24" fill="currentColor" class="w-6 h-6"><path fill-rule="evenodd" d="M11.078 1.577a.75.75 0 0 1 .844 0L22.332 7.77a.75.75 0 0 1 0 1.342L12.078 15.57a.75.75 0 0 1-.844 0L1.668 9.112a.75.75 0 0 1 0-1.342L11.078 1.577ZM4.5 16.126a.75.75 0 0 1 .75-.75h3.111l-3.923-3.138a.75.75 0 0 1 .641-1.246h3.693l-.865-.69a.75.75 0 0 1 .974-1.156l3.5 2.8a.75.75 0 0 1 0 1.156l-3.5 2.8a.75.75 0 0 1-.974-1.156l.865-.69H5.25v1.875Zm15 0a.75.75 0 0 1-.75-.75H15.639l3.923-3.138a.75.75 0 0 1-.641-1.246h-3.693l.865-.69a.75.75 0 0 1-.974-1.156l-3.5 2.8a.75.75 0 0 1 0 1.156l3.5 2.8a.75.75 0 0 1 .974-1.156l-.865-.69h3.111v1.875Z" clip-rule="evenodd" /></svg>
