<svg viewBox="0 0 24 24" fill="none" xmlns="http://www.w3.org/2000/svg"><path d="M12 2C6.47715 2 2 6.47715 2 12C2 17.5228 6.47715 22 12 22C17.5228 22 22 17.5228 22 12C22 6.47715 17.5228 2 12 2Z" fill="#F6851B"/><path d="M12 5.5C8.41015 5.5 5.5 8.41015 5.5 12C5.5 15.5898 8.41015 18.5 12 18.5C15.5898 18.5 18.5 15.5898 18.5 12C18.5 8.41015 15.5898 5.5 12 5.5Z" fill="#FFFFFF"/><path d="M12 8C10.8954 8 10 8.89543 10 10C10 11.1046 10.8954 12 12 12C13.1046 12 14 11.1046 14 10C14 8.89543 13.1046 8 12 8Z" fill="#E24A26"/><path d="M12 11C11.4477 11 11 11.4477 11 12C11 12.5523 11.4477 13 12 13C12.5523 13 13 12.5523 13 12C13 11.4477 12.5523 11 12 11Z" fill="#167D7F"/></svg>
