<svg xmlns="http://www.w3.org/2000/svg" viewBox="0 0 24 24" fill="currentColor" class="w-6 h-6"><path d="M17.58 12.42c-.22-.22-.51-.35-.83-.35-.74 0-1.35.6-1.35 1.35s.6 1.35 1.35 1.35.83-.13.83-.35c.22-.22.35-.51.35-.83 0-.32-.13-.61-.35-.82zm-6.07-.35c-.32-.22-.61-.35-.83-.35-.74 0-1.35.6-1.35 1.35s.6 1.35 1.35 1.35.83-.13.83-.35c.22-.22.35-.51.35-.83 0-.32-.13-.61-.35-.82zm-6.07-.35c-.32-.22-.61-.35-.83-.35-.74 0-1.35.6-1.35 1.35s.6 1.35 1.35 1.35.83-.13.83-.35c.22-.22.35-.51.35-.83 0-.32-.13-.61-.35-.82zM12 2C6.48 2 2 6.48 2 12s4.48 10 10 10 10-4.48 10-10S17.52 2 12 2zm0 18c-4.41 0-8-3.59-8-8s3.59-8 8-8 8 3.59 8 8-3.59 8-8 8zm-6.07-5.07c-.22-.22-.51-.35-.83-.35-.74 0-1.35.6-1.35 1.35s.6 1.35 1.35 1.35.83-.13.83-.35c.22-.22.35-.51.35-.83 0-.32-.13-.61-.35-.82zm6.07-.35c-.32-.22-.61-.35-.83-.35-.74 0-1.35.6-1.35 1.35s.6 1.35 1.35 1.35.83-.13.83-.35c.22-.22.35-.51.35-.83 0-.32-.13-.61-.35-.82zm6.07-.35c-.32-.22-.61-.35-.83-.35-.74 0-1.35.6-1.35 1.35s.6 1.35 1.35 1.35.83-.13.83-.35c.22-.22.35-.51.35-.83 0-.32-.13-.61-.35-.82z"/></svg>
